<svg width="20" height="20" viewBox="0 0 20 20" fill="none" xmlns="http://www.w3.org/2000/svg">
<path d="M17.4998 9.58329C17.4998 11.1491 17.0355 12.6797 16.1656 13.9816C15.2957 15.2834 14.0593 16.2981 12.6128 16.8973C11.1662 17.4965 9.57439 17.6533 8.03871 17.3478C6.50303 17.0424 5.09241 16.2884 3.98525 15.1812C2.87808 14.0741 2.12409 12.6634 1.81862 11.1278C1.51316 9.59207 1.66993 8.0003 2.26913 6.55371C2.86832 5.10713 3.88302 3.87072 5.18491 3.00082C6.4868 2.13093 8.01741 1.66663 9.58317 1.66663C11.6828 1.66663 13.6964 2.5007 15.1811 3.98536C16.6658 5.47003 17.4998 7.48366 17.4998 9.58329V9.58329Z" stroke="white" stroke-width="1.5" stroke-linecap="round" stroke-linejoin="round"/>
<path d="M18.3332 18.3333L16.6665 16.6666" stroke="white" stroke-width="1.5" stroke-linecap="round" stroke-linejoin="round"/>
</svg>
